<svg width="200" height="150" viewBox="0 0 925 428" fill="none" xmlns="http://www.w3.org/2000/svg">
<g>
<path d="M463.575 175.091H384.969C384.023 175.102 383.083 174.948 382.206 174.638C381.329 174.328 380.533 173.869 379.864 173.287C379.194 172.705 378.666 172.013 378.31 171.251C377.953 170.489 377.776 169.672 377.789 168.85V100.515C377.789 80.7366 386.827 61.7679 402.915 47.7822C419.003 33.7965 440.823 25.9395 463.575 25.9395C474.84 25.9395 485.996 27.8684 496.404 31.6162C506.812 35.364 516.269 40.8572 524.235 47.7822C532.201 54.7073 538.52 62.9284 542.831 71.9764C547.143 81.0244 549.361 90.7218 549.361 100.515C549.361 110.308 547.143 120.006 542.831 129.054C538.52 138.102 532.201 146.323 524.235 153.248C516.269 160.173 506.812 165.667 496.404 169.414C485.996 173.162 474.84 175.091 463.575 175.091Z" stroke="#DAA520" stroke-width="4" stroke-linecap="round" stroke-linejoin="round"/>
<path d="M433.736 90.7876H489.684" stroke="white" stroke-width="4" stroke-linecap="round" stroke-linejoin="round"/>
<path d="M433.736 116.727H489.684" stroke="white" stroke-width="4" stroke-linecap="round" stroke-linejoin="round"/>
<path d="M344.447 383.265C337.862 383.265 331.888 382.303 326.526 380.378C321.223 378.402 316.648 375.641 312.801 372.095C309.013 368.548 306.099 364.343 304.06 359.479C302.02 354.616 301 349.296 301 343.52V340.329C301 333.642 302.137 327.688 304.409 322.47C306.682 317.201 309.771 312.743 313.676 309.095C317.58 305.448 322.009 302.686 326.964 300.812C331.917 298.937 337.045 298 342.349 298C349.109 298 354.937 299.013 359.833 301.04C364.786 303.066 368.837 305.903 371.984 309.551C375.131 313.148 377.462 317.404 378.977 322.318C380.492 327.182 381.25 332.502 381.25 338.277V344.585H310.616V333.109H365.078V332.046C364.844 328.398 363.97 324.851 362.455 321.406C360.998 317.961 358.667 315.124 355.462 312.895C352.256 310.666 347.886 309.551 342.349 309.551C338.678 309.551 335.297 310.235 332.208 311.603C329.119 312.92 326.468 314.896 324.253 317.531C322.039 320.165 320.319 323.382 319.096 327.182C317.872 330.982 317.26 335.364 317.26 340.329V343.52C317.26 347.422 317.872 351.095 319.096 354.54C320.378 357.934 322.214 360.923 324.603 363.507C327.051 366.091 329.994 368.118 333.432 369.587C336.929 371.056 340.892 371.791 345.321 371.791C351.032 371.791 355.87 370.777 359.833 368.751C363.796 366.724 367.263 364.014 370.235 360.619L380.026 367.383C377.987 370.068 375.393 372.626 372.246 375.058C369.099 377.49 365.223 379.466 360.619 380.986C356.074 382.506 350.683 383.265 344.447 383.265Z" fill="white"/>
<path d="M627.137 319.572V331.504H558.25V319.572H627.137ZM560.871 272V382.648H544V272H560.871ZM641.823 272V382.648H625.037V272H641.823Z" fill="#DAA520"/>
<path d="M708.447 385.265C701.858 385.265 695.888 384.303 690.525 382.378C685.219 380.402 680.646 377.641 676.798 374.095C673.013 370.548 670.096 366.343 668.059 361.479C666.021 356.616 665 351.296 665 345.52V342.329C665 335.642 666.135 329.688 668.411 324.47C670.681 319.201 673.768 314.743 677.672 311.095C681.582 307.448 686.008 304.686 690.962 302.812C695.917 300.937 701.047 300 706.347 300C713.106 300 718.934 301.013 723.831 303.04C728.785 305.066 732.837 307.903 735.981 311.551C739.131 315.148 741.463 319.404 742.978 324.318C744.493 329.182 745.248 334.502 745.248 340.277V346.585H674.613V335.109H729.075V334.046C728.842 330.398 727.968 326.851 726.453 323.406C724.994 319.961 722.668 317.124 719.462 314.895C716.255 312.666 711.886 311.551 706.347 311.551C702.675 311.551 699.293 312.235 696.206 313.603C693.119 314.92 690.469 316.896 688.25 319.531C686.037 322.165 684.317 325.382 683.097 329.182C681.871 332.982 681.258 337.364 681.258 342.329V345.52C681.258 349.422 681.871 353.095 683.097 356.54C684.374 359.934 686.213 362.923 688.602 365.507C691.048 368.091 693.993 370.118 697.432 371.587C700.927 373.056 704.888 373.791 709.321 373.791C715.029 373.791 719.87 372.777 723.831 370.751C727.792 368.724 731.259 366.014 734.233 362.619L744.022 369.383C741.985 372.068 739.392 374.626 736.242 377.058C733.098 379.49 729.222 381.466 724.62 382.986C720.074 384.506 714.683 385.265 708.447 385.265Z" fill="#DAA520"/>
<path d="M784.258 270V386.727H768V270H784.258Z" fill="#DAA520"/>
<path d="M823.258 317.327V415.359H807V301.52H821.857L823.258 317.327ZM886.987 341.949V343.545C886.987 349.523 886.17 355.071 884.535 360.188C882.907 365.254 880.518 369.662 877.368 373.41C874.281 377.16 870.462 380.073 865.916 382.15C861.371 384.227 856.156 385.265 850.271 385.265C844.267 385.265 838.961 384.405 834.358 382.682C829.756 380.959 825.852 378.451 822.646 375.158C819.439 371.865 816.874 367.914 814.95 363.303C813.089 358.693 811.807 353.5 811.109 347.724V339.213C811.807 333.134 813.118 327.687 815.041 322.874C816.965 318.062 819.496 313.958 822.646 310.563C825.852 307.118 829.728 304.509 834.273 302.736C838.819 300.912 844.062 300 850.01 300C855.951 300 861.223 301.013 865.831 303.04C870.433 305.015 874.309 307.853 877.459 311.551C880.603 315.25 882.963 319.683 884.535 324.85C886.17 329.967 886.987 335.667 886.987 341.949ZM870.723 343.545V341.949C870.723 337.845 870.229 333.995 869.236 330.398C868.249 326.75 866.705 323.558 864.605 320.822C862.568 318.036 859.941 315.858 856.74 314.287C853.534 312.666 849.715 311.855 845.288 311.855C841.208 311.855 837.65 312.463 834.62 313.679C831.652 314.895 829.115 316.541 827.015 318.618C824.915 320.645 823.196 322.976 821.857 325.61C820.574 328.194 819.615 330.879 818.974 333.665V353.348C820.137 356.894 821.772 360.238 823.871 363.379C825.965 366.47 828.763 368.977 832.259 370.903C835.76 372.777 840.158 373.714 845.458 373.714C849.834 373.714 853.59 372.929 856.74 371.359C859.941 369.737 862.568 367.533 864.605 364.747C866.705 361.961 868.249 358.769 869.236 355.172C870.229 351.524 870.723 347.649 870.723 343.545Z" fill="#DAA520"/>
<path d="M251.258 268V384.727H235V268H251.258Z" fill="white"/>
<path d="M115 385.5L69 259H85L122 363L159 259H176.5L129.5 385.5H115Z" fill="white"/>
<path d="M282.258 268V384.727H266V268H282.258Z" fill="white"/>
<path d="M420.258 268V384.727H404V268H420.258Z" fill="white"/>
<path d="M503.557 366.74V317.785C503.557 314.035 502.795 310.783 501.271 308.029C499.807 305.217 497.58 303.049 494.592 301.525C491.604 300.002 487.912 299.24 483.518 299.24C479.416 299.24 475.812 299.943 472.707 301.35C469.66 302.756 467.258 304.602 465.5 306.887C463.801 309.172 462.951 311.633 462.951 314.27H446.691C446.691 310.871 447.57 307.502 449.328 304.162C451.086 300.822 453.605 297.805 456.887 295.109C460.227 292.355 464.211 290.188 468.84 288.605C473.527 286.965 478.742 286.145 484.484 286.145C491.398 286.145 497.492 287.316 502.766 289.66C508.098 292.004 512.258 295.549 515.246 300.295C518.293 304.982 519.816 310.871 519.816 317.961V362.258C519.816 365.422 520.08 368.791 520.607 372.365C521.193 375.939 522.043 379.016 523.156 381.594V383H506.193C505.373 381.125 504.729 378.635 504.26 375.529C503.791 372.365 503.557 369.436 503.557 366.74ZM506.369 325.344L506.545 336.77H490.109C485.48 336.77 481.35 337.15 477.717 337.912C474.084 338.615 471.037 339.699 468.576 341.164C466.115 342.629 464.24 344.475 462.951 346.701C461.662 348.869 461.018 351.418 461.018 354.348C461.018 357.336 461.691 360.061 463.039 362.521C464.387 364.982 466.408 366.945 469.104 368.41C471.857 369.816 475.227 370.52 479.211 370.52C484.191 370.52 488.586 369.465 492.395 367.355C496.203 365.246 499.221 362.668 501.447 359.621C503.732 356.574 504.963 353.615 505.139 350.744L512.082 358.566C511.672 361.027 510.559 363.752 508.742 366.74C506.926 369.729 504.494 372.6 501.447 375.354C498.459 378.049 494.885 380.305 490.725 382.121C486.623 383.879 481.994 384.758 476.838 384.758C470.393 384.758 464.738 383.498 459.875 380.979C455.07 378.459 451.32 375.09 448.625 370.871C445.988 366.594 444.67 361.818 444.67 356.545C444.67 351.447 445.666 346.965 447.658 343.098C449.65 339.172 452.521 335.92 456.271 333.342C460.021 330.705 464.533 328.713 469.807 327.365C475.08 326.018 480.969 325.344 487.473 325.344H506.369Z" fill="white"/>
<path d="M211.289 291.902V387H194.941V291.902H211.289ZM193.711 266.678C193.711 264.041 194.502 261.814 196.084 259.998C197.725 258.182 200.127 257.273 203.291 257.273C206.396 257.273 208.77 258.182 210.41 259.998C212.109 261.814 212.959 264.041 212.959 266.678C212.959 269.197 212.109 271.365 210.41 273.182C208.77 274.939 206.396 275.818 203.291 275.818C200.127 275.818 197.725 274.939 196.084 273.182C194.502 271.365 193.711 269.197 193.711 266.678Z" fill="white"/>
</g>
</svg>
