<svg width="154" height="25" viewBox="0 0 818 159" fill="none" xmlns="http://www.w3.org/2000/svg">
<path d="M235.868 65.6699L235.869 65.6683C238.116 60.458 241.166 56.0578 245.017 52.4604L244.676 52.095L245.017 52.4604C248.874 48.8571 253.248 46.1307 258.141 44.2796L258.141 44.2796C263.037 42.4262 268.106 41.5 273.349 41.5C280.061 41.5 285.821 42.5064 290.642 44.5018L290.644 44.5025C295.532 46.5024 299.515 49.2959 302.605 52.8777L302.608 52.8803C305.705 56.4207 308.003 60.6134 309.499 65.4656L309.5 65.467C310.998 70.2763 311.75 75.5455 311.75 81.2772V87.0846H248.765C248.762 86.8971 248.76 86.7091 248.76 86.5205V83.3287C248.76 80.9501 248.902 78.7106 249.184 76.6093H296.078H296.578V76.1093V75.0457V75.0297L296.577 75.0138C296.34 71.3069 295.452 67.7042 293.914 64.208C292.418 60.6735 290.026 57.7642 286.747 55.4844C283.43 53.1774 278.947 52.0511 273.349 52.0511C269.615 52.0511 266.166 52.7471 263.009 54.1444C259.848 55.4934 257.134 57.5168 254.871 60.2088L254.871 60.2089C252.608 62.9001 250.86 66.1772 249.62 70.0285C249.059 71.7715 248.625 73.632 248.318 75.6093H241.616H241.116V76.1093V87.5846V88.0846H241.616H247.793C247.936 91.4619 248.546 94.67 249.625 97.7072L249.625 97.7072L249.628 97.7164C250.932 101.169 252.802 104.214 255.236 106.847L255.24 106.851C257.737 109.487 260.738 111.552 264.236 113.046L264.239 113.048C267.806 114.547 271.836 115.291 276.321 115.291C282.09 115.291 287.01 114.267 291.06 112.196L290.833 111.751L291.06 112.196C294.95 110.207 298.368 107.568 301.316 104.283L310.308 110.494C308.35 112.989 305.895 115.379 302.94 117.663C299.846 120.053 296.024 122.005 291.463 123.511L291.461 123.512C286.979 125.01 281.644 125.765 275.447 125.765C268.912 125.765 262.997 124.811 257.698 122.908C252.452 120.954 247.936 118.226 244.142 114.729C240.407 111.231 237.534 107.085 235.521 102.286C233.509 97.4895 232.5 92.236 232.5 86.5205V83.3287C232.5 76.6984 233.627 70.8151 235.868 65.6699ZM247.76 86.5205C247.76 86.709 247.762 86.8971 247.764 87.0846H242.116V76.6093H248.175C247.898 78.7213 247.76 80.9613 247.76 83.3287V86.5205Z" fill="white" stroke="white"/>
<path d="M558.137 62.5725V74.5038H489.25V62.5725H558.137ZM491.871 15V125.648H475V15H491.871ZM572.823 15V125.648H556.037V15H572.823Z" fill="#DAA520"/>
<path d="M599.869 67.6701L599.87 67.6681C602.114 62.458 605.163 58.0579 609.013 54.4607C612.876 50.8571 617.247 48.1307 622.139 46.2796L622.139 46.2796C627.037 44.4262 632.107 43.5 637.347 43.5C644.057 43.5 649.817 44.5064 654.64 46.5018L654.642 46.5026C659.531 48.5025 663.515 51.2959 666.602 54.8775L666.605 54.8804C669.705 58.4208 672.004 62.6135 673.5 67.4656L673.501 67.467C674.999 72.2762 675.748 77.5453 675.748 83.2772V89.0846H612.763C612.76 88.8971 612.758 88.7091 612.758 88.5205V85.3287C612.758 82.9501 612.9 80.7106 613.183 78.6093H660.075H660.575V78.1093V77.0457V77.0298L660.574 77.0139C660.337 73.3069 659.449 69.7042 657.912 66.208C656.415 62.6738 654.027 59.7644 650.747 57.4843C647.429 55.1774 642.947 54.0511 637.347 54.0511C633.613 54.0511 630.162 54.7471 627.007 56.1445C623.847 57.4935 621.134 59.5168 618.867 62.2085L618.867 62.209C616.606 64.9 614.858 68.1769 613.621 72.0282C613.059 73.7713 612.625 75.6319 612.317 77.6093H605.613H605.113V78.1093V89.5846V90.0846H605.613H611.791C611.935 93.462 612.545 96.6702 613.626 99.7074L613.626 99.7074L613.629 99.7158C614.928 103.169 616.801 106.214 619.235 108.847L619.239 108.851C621.734 111.487 624.737 113.552 628.235 115.046L628.238 115.048C631.804 116.547 635.833 117.291 640.321 117.291C646.087 117.291 651.01 116.267 655.059 114.196C658.946 112.207 662.365 109.568 665.313 106.283L674.305 112.495C672.348 114.989 669.894 117.379 666.936 119.662L666.936 119.663C663.846 122.053 660.023 124.005 655.463 125.511L655.461 125.512C650.98 127.01 645.645 127.765 639.447 127.765C632.908 127.765 626.997 126.811 621.697 124.908C616.449 122.953 611.933 120.226 608.138 116.728C604.406 113.231 601.53 109.085 599.52 104.286C597.511 99.4895 596.5 94.2359 596.5 88.5205V85.3287C596.5 78.6983 597.625 72.8151 599.869 67.6701ZM611.758 88.5205C611.758 88.709 611.76 88.8971 611.763 89.0846H606.113V78.6093H612.174C611.897 80.7213 611.758 82.9613 611.758 85.3287V88.5205Z" fill="#DAA520" stroke="#DAA520"/>
<path d="M715.258 13V129.727H699V13H715.258Z" fill="#DAA520"/>
<path d="M754.758 60.3266V60.3045L754.757 60.2824L754.175 53.7292C757.296 50.4275 761.054 47.9186 765.455 46.2016L765.455 46.2016L765.459 46.1998C769.935 44.4044 775.113 43.5 781.01 43.5C786.894 43.5 792.096 44.5036 796.63 46.4975L796.634 46.4992C801.168 48.4454 804.98 51.2375 808.078 54.8749C811.173 58.5158 813.503 62.8863 815.057 67.9956L815.059 68.0022C816.675 73.0628 817.487 78.7098 817.487 84.9489V86.5448C817.487 92.4772 816.676 97.9731 815.059 103.035C813.449 108.045 811.089 112.394 807.985 116.089L807.982 116.093C804.945 119.781 801.187 122.649 796.708 124.695C792.239 126.738 787.096 127.765 781.271 127.765C775.314 127.765 770.069 126.911 765.534 125.213L765.358 125.682L765.534 125.213C761.352 123.648 757.762 121.429 754.758 118.557V107.094C756.864 110.055 759.622 112.47 763.018 114.341L763.023 114.344C766.617 116.268 771.102 117.214 776.458 117.214C780.893 117.214 784.73 116.419 787.963 114.806L787.966 114.805C791.232 113.15 793.921 110.897 796.007 108.045C798.146 105.205 799.716 101.957 800.718 98.3045L800.718 98.3035C801.724 94.6091 802.223 90.689 802.223 86.5448V84.9489C802.223 80.8054 801.724 76.9108 800.718 73.2665C799.716 69.5641 798.147 66.3137 796.006 63.5226C793.92 60.6712 791.23 58.4433 787.963 56.8392C784.673 55.1765 780.774 54.3551 776.288 54.3551C772.16 54.3551 768.536 54.9702 765.433 56.2152L765.43 56.2166C762.408 57.4543 759.815 59.1349 757.666 61.2608C756.601 62.2893 755.631 63.3944 754.758 64.576V60.3266ZM753.261 54.7401L753.758 60.3487V66.0284C753.274 66.7852 752.824 67.5702 752.411 68.3835L752.411 68.3835L752.409 68.3878C751.109 71.0066 750.137 73.7287 749.487 76.5533L749.474 76.6086V76.6654V96.348V96.4279L749.499 96.5038C750.544 99.6915 751.966 102.717 753.758 105.58V117.555C750.714 114.363 748.265 110.551 746.413 106.113C744.574 101.559 743.303 96.4201 742.609 90.6943V82.2418C743.303 76.2101 744.604 70.8174 746.506 66.0599C748.253 61.6876 750.503 57.9163 753.261 54.7401ZM753.287 118.507C753.443 118.667 753.6 118.825 753.758 118.981V157.859H738.5V45.0201H752.399L753.14 53.374C750.008 56.7891 747.492 60.8968 745.577 65.6888C743.634 70.5494 742.314 76.0402 741.612 82.1561L741.609 82.1846V82.2132V90.7244V90.7545L741.612 90.7844C742.315 96.5966 743.607 101.833 745.487 106.49L745.487 106.49L745.489 106.496C747.435 111.159 750.033 115.165 753.287 118.507ZM753.758 67.9786V103.634C752.415 101.285 751.32 98.83 750.474 96.2678V76.7224C751.106 73.9946 752.047 71.3656 753.304 68.8345C753.451 68.5455 753.602 68.2601 753.758 67.9786Z" fill="#DAA520" stroke="#DAA520"/>
<path d="M182.258 11V127.727H166V11H182.258Z" fill="white"/>
<path d="M46 128.5L0 2H16L53 106L90 2H107.5L60.5 128.5H46Z" fill="white"/>
<path d="M213.258 11V127.727H197V11H213.258Z" fill="white"/>
<path d="M351.258 11V127.727H335V11H351.258Z" fill="white"/>
<path d="M434.557 109.74V60.7852C434.557 57.0352 433.795 53.7832 432.271 51.0293C430.807 48.2168 428.58 46.0488 425.592 44.5254C422.604 43.002 418.912 42.2402 414.518 42.2402C410.416 42.2402 406.812 42.9434 403.707 44.3496C400.66 45.7559 398.258 47.6016 396.5 49.8867C394.801 52.1719 393.951 54.6328 393.951 57.2695H377.691C377.691 53.8711 378.57 50.502 380.328 47.1621C382.086 43.8223 384.605 40.8047 387.887 38.1094C391.227 35.3555 395.211 33.1875 399.84 31.6055C404.527 29.9648 409.742 29.1445 415.484 29.1445C422.398 29.1445 428.492 30.3164 433.766 32.6602C439.098 35.0039 443.258 38.5488 446.246 43.2949C449.293 47.9824 450.816 53.8711 450.816 60.9609V105.258C450.816 108.422 451.08 111.791 451.607 115.365C452.193 118.939 453.043 122.016 454.156 124.594V126H437.193C436.373 124.125 435.729 121.635 435.26 118.529C434.791 115.365 434.557 112.436 434.557 109.74ZM437.369 68.3438L437.545 79.7695H421.109C416.48 79.7695 412.35 80.1504 408.717 80.9121C405.084 81.6152 402.037 82.6992 399.576 84.1641C397.115 85.6289 395.24 87.4746 393.951 89.7012C392.662 91.8691 392.018 94.418 392.018 97.3477C392.018 100.336 392.691 103.061 394.039 105.521C395.387 107.982 397.408 109.945 400.104 111.41C402.857 112.816 406.227 113.52 410.211 113.52C415.191 113.52 419.586 112.465 423.395 110.355C427.203 108.246 430.221 105.668 432.447 102.621C434.732 99.5742 435.963 96.6152 436.139 93.7441L443.082 101.566C442.672 104.027 441.559 106.752 439.742 109.74C437.926 112.729 435.494 115.6 432.447 118.354C429.459 121.049 425.885 123.305 421.725 125.121C417.623 126.879 412.994 127.758 407.838 127.758C401.393 127.758 395.738 126.498 390.875 123.979C386.07 121.459 382.32 118.09 379.625 113.871C376.988 109.594 375.67 104.818 375.67 99.5449C375.67 94.4473 376.666 89.9648 378.658 86.0977C380.65 82.1719 383.521 78.9199 387.271 76.3418C391.021 73.7051 395.533 71.7129 400.807 70.3652C406.08 69.0176 411.969 68.3438 418.473 68.3438H437.369Z" fill="white"/>
<path d="M142.289 34.9023V130H125.941V34.9023H142.289ZM124.711 9.67773C124.711 7.04102 125.502 4.81445 127.084 2.99805C128.725 1.18164 131.127 0.273438 134.291 0.273438C137.396 0.273438 139.77 1.18164 141.41 2.99805C143.109 4.81445 143.959 7.04102 143.959 9.67773C143.959 12.1973 143.109 14.3652 141.41 16.1816C139.77 17.9395 137.396 18.8184 134.291 18.8184C131.127 18.8184 128.725 17.9395 127.084 16.1816C125.502 14.3652 124.711 12.1973 124.711 9.67773Z" fill="white"/>
</svg>
